<svg width="100" height="100" viewBox="0 0 100 100" fill="none" xmlns="http://www.w3.org/2000/svg">
<circle cx="50" cy="50" r="50" fill="#00B4D8"/>
<path d="M14.932 80V77.688H18.536L30.3 29.68H33.02L44.784 77.688H49.136V80H33.088V77.688H39.956L36.012 61.572H24.792L20.916 77.688H25.676V80H14.932ZM30.368 38.384L25.336 59.396H35.468L30.368 38.384ZM77.152 80.68C75.248 80.68 73.7747 80.0453 72.732 78.776C71.7347 77.4613 71.236 75.7613 71.236 73.676V61.164C71.236 58.6707 70.76 56.948 69.808 55.996C68.9013 54.9987 67.0653 54.5 64.3 54.5H61.036V77.688H66.68V80H50.564V77.688H56.276V31.992H50.564V29.68H66.204C69.604 29.68 72.3013 30.3147 74.296 31.584C76.336 32.8533 77.7867 34.44 78.648 36.344C79.5547 38.248 80.008 40.1293 80.008 41.988C80.008 45.0253 79.0787 47.5187 77.22 49.468C75.3613 51.4173 72.8907 52.7093 69.808 53.344L69.468 53.412V53.82L69.808 53.888C71.8027 54.296 73.3213 55.0213 74.364 56.064C75.4067 57.1067 75.928 58.8067 75.928 61.164V73.132C75.928 73.5853 75.9507 74.1747 75.996 74.9C76.0867 75.58 76.3133 76.192 76.676 76.736C77.0387 77.2347 77.628 77.484 78.444 77.484C79.4867 77.484 80.1667 77.076 80.484 76.26C80.8013 75.3987 80.96 74.492 80.96 73.54V61.776H83V73.744C83 74.7413 82.8187 75.784 82.456 76.872C82.1387 77.96 81.5493 78.8667 80.688 79.592C79.872 80.3173 78.6933 80.68 77.152 80.68ZM61.036 52.324H65.048C68.0853 52.324 70.3973 51.7573 71.984 50.624C73.616 49.4453 74.432 47.3373 74.432 44.3V40.56C74.432 37.5227 73.616 35.324 71.984 33.964C70.3973 32.5587 68.0853 31.856 65.048 31.856H61.036V52.324Z" fill="black"/>
</svg>
