<svg width="298.8" height="225.003" viewBox="0 0 298.8 225.003" xmlns="http://www.w3.org/2000/svg">
    <g id="svgGroup" stroke-linecap="round" fill-rule="evenodd" font-size="9pt" stroke="#000" stroke-width="0.25mm"
        fill="#000" style="stroke:#000;stroke-width:0.25mm;fill:#000">
        <path
            d="M 246.9 194.101 L 246.9 138.901 Q 246.9 125.374 242.767 118.602 A 15.597 15.597 0 0 0 240.75 115.951 A 15.836 15.836 0 0 0 235.485 112.447 Q 230.355 110.23 222.083 109.682 A 87.563 87.563 0 0 0 216.3 109.501 L 201.9 109.501 L 201.9 211.801 L 226.8 211.801 L 226.8 222.001 L 155.7 222.001 L 155.7 211.801 L 180.9 211.801 L 180.9 10.201 L 155.7 10.201 L 155.7 0.001 L 224.7 0.001 A 97.926 97.926 0 0 1 238.936 0.971 Q 246.337 2.061 252.404 4.374 A 46.041 46.041 0 0 1 260.55 8.401 A 55.518 55.518 0 0 1 271.875 17.687 A 45.364 45.364 0 0 1 279.75 29.401 A 64.154 64.154 0 0 1 284.48 43.481 A 53.537 53.537 0 0 1 285.6 54.301 Q 285.6 74.401 273.3 87.301 A 56.396 56.396 0 0 1 252.139 101.088 A 75.253 75.253 0 0 1 240.6 104.401 L 239.1 104.701 L 239.1 106.501 L 240.6 106.801 A 55.127 55.127 0 0 1 248.931 109.154 Q 256.172 111.873 260.7 116.401 Q 265.673 121.374 267.062 130.867 A 55.669 55.669 0 0 1 267.6 138.901 L 267.6 191.701 Q 267.6 194.701 268.05 199.351 Q 268.5 204.001 270.9 207.451 Q 273.3 210.901 278.7 210.901 A 13.051 13.051 0 0 0 282.093 210.492 Q 286.17 209.394 287.7 205.351 A 33.041 33.041 0 0 0 289.795 194.09 A 37.491 37.491 0 0 0 289.8 193.501 L 289.8 141.601 L 298.8 141.601 L 298.8 194.401 A 43.14 43.14 0 0 1 297.831 203.322 A 53.222 53.222 0 0 1 296.55 208.201 Q 294.3 215.401 288.75 220.201 A 18.209 18.209 0 0 1 282.099 223.782 Q 279.377 224.62 276.097 224.882 A 38.937 38.937 0 0 1 273 225.001 A 29.603 29.603 0 0 1 264.864 223.944 A 21.424 21.424 0 0 1 253.65 216.451 Q 246.9 207.901 246.9 194.101 Z M 47.4 222.001 L 0 222.001 L 0 211.801 L 15.9 211.801 L 67.8 0.001 L 79.8 0.001 L 131.7 211.801 L 150.9 211.801 L 150.9 222.001 L 80.1 222.001 L 80.1 211.801 L 110.4 211.801 L 93 140.701 L 43.5 140.701 L 26.4 211.801 L 47.4 211.801 L 47.4 222.001 Z M 201.9 9.601 L 201.9 99.901 L 219.6 99.901 A 84.754 84.754 0 0 0 231.106 99.173 Q 236.86 98.382 241.555 96.733 A 34.653 34.653 0 0 0 250.35 92.251 Q 261 84.601 261 64.501 L 261 48.001 Q 261 35.269 256.727 26.931 A 26.702 26.702 0 0 0 250.35 18.751 Q 241.733 11.348 226.93 9.935 A 77.188 77.188 0 0 0 219.6 9.601 L 201.9 9.601 Z M 90.6 131.101 L 68.1 38.401 L 45.9 131.101 L 90.6 131.101 Z"
            vector-effect="non-scaling-stroke" />
    </g>
</svg>